<svg xmlns="http://www.w3.org/2000/svg" width="130.207" height="130.207" viewBox="0 0 130.207 130.207"><path d="M0,0H130.207V130.207H0Z" fill="none"/><path d="M79.938,61.678a10.8,10.8,0,0,0,9.494-5.588l19.423-35.21a5.4,5.4,0,0,0-4.72-8.029H23.84L18.741,2H1V12.851H11.851L31.382,54.029,24.057,67.266a10.87,10.87,0,0,0,9.494,16.113h65.1V72.529h-65.1L39.52,61.678ZM28.994,23.7H94.912L79.938,50.828H41.852Zm4.557,65.1A10.851,10.851,0,1,0,44.4,99.655,10.836,10.836,0,0,0,33.552,88.8Zm54.253,0A10.851,10.851,0,1,0,98.655,99.655,10.836,10.836,0,0,0,87.8,88.8Z" transform="translate(4.425 8.851)" fill="#212121"/></svg>