<svg xmlns="http://www.w3.org/2000/svg" width="143.061" height="20" viewBox="0 0 143.061 20"><g transform="translate(-42 -191.09)"><g transform="translate(42 191.09)"><path d="M140.546,199.09h-5.983v-8H130.39v20h4.173l0-8.946h5.978l0,8.946h4.174v-20h-4.173Z" transform="translate(-116.34 -191.09)" fill="#212121" fill-rule="evenodd"/><path d="M820.76,191.09v3.052h5.668v16.946H830.6V194.142h5.668V191.09Z" transform="translate(-696.97 -191.09)" fill="#212121" fill-rule="evenodd"/><path d="M660.043,191.09H655.87v20h11.938v-3.054h-7.767Z" transform="translate(-558.291 -191.09)" fill="#212121" fill-rule="evenodd"/><path d="M328.038,207.763c-.06.207-.215.262-.434.262a.417.417,0,0,1-.44-.273l-4.4-16.662H317.9l5.05,18.242a2.029,2.029,0,0,0,2.178,1.758h3.85a2.042,2.042,0,0,0,2.149-1.728l4.929-18.272h-3.688Z" transform="translate(-274.044 -191.09)" fill="#212121" fill-rule="evenodd"/><path d="M42,194.214l0,13.75c0,2.225,1.141,3.127,3.117,3.127l9.332,0V208.03H47.7c-1.157,0-1.529-.283-1.529-1.529l0-10.833c0-1.2.28-1.526,1.528-1.526H54.45V191.09H45.127c-2.135,0-3.124,1.1-3.124,3.124Z" transform="translate(-42 -191.09)" fill="#212121" fill-rule="evenodd"/><path d="M240.481,206.5l0-4.359h8.3V199.09h-8.291v-3.422c0-1.159.256-1.526,1.526-1.526h6.851V191.09l-9.433,0c-2.155,0-3.119,1.076-3.119,3.12l0,13.75c0,2.113,1.028,3.127,3.119,3.127l10.305,0V208.03H242.01C240.853,208.03,240.481,207.771,240.481,206.5Z" transform="translate(-205.423 -191.09)" fill="#212121" fill-rule="evenodd"/><path d="M447.166,202.638c1.931,0,3.119-.879,3.119-3.127l0-5.3c0-2.089-.986-3.124-3.12-3.124H435.53v20H439.7V194.142h4.875c1.294,0,1.528.367,1.528,1.526l.006,2.437c0,1.179-.326,1.529-1.529,1.529l-2.281,0a1.273,1.273,0,0,0-1.385,1.394,2.1,2.1,0,0,0,.394,1.057l5.271,9h5.164l-5.519-8.444Z" transform="translate(-372.976 -191.09)" fill="#212121" fill-rule="evenodd"/><path d="M555.149,191.11h-9.2c-2.2,0-3.12,1.122-3.12,3.12l0,13.75c0,2.27,1.211,3.127,3.12,3.127h4.622l4.578,0c2,0,3.122-.946,3.122-3.125l0-13.75c0-2.044-.963-3.12-3.12-3.12Zm-2.578,16.937h-4.039c-1.2,0-1.529-.326-1.529-1.529V195.685c0-1.046.143-1.526,1.528-1.526h4.042c1.09,0,1.524.188,1.524,1.526l0,10.833C554.1,207.81,553.706,208.047,552.571,208.047Z" transform="translate(-463.219 -191.107)" fill="#212121" fill-rule="evenodd"/><path d="M740.241,206.5l0-4.359h8.294V199.09h-8.29v-3.422c0-1.159.254-1.526,1.526-1.526h6.851V191.09l-9.432,0c-2.157,0-3.12,1.076-3.12,3.12l0,13.75c0,2.113,1.028,3.127,3.119,3.127l10.305,0V208.03H741.77c-1.159,0-1.529-.259-1.529-1.529Z" transform="translate(-625.742 -191.09)" fill="#212121" fill-rule="evenodd"/><path d="M931.188,195.913c0-.335-.275-.413-.558-.413h-.68v1.564h.219v-.685h.3l.448.685h.245l-.464-.707c.277-.006.486-.135.486-.443Zm-.609.278h-.41v-.505h.418c.165,0,.38.019.38.224C930.967,196.064,930.9,196.191,930.579,196.191Z" transform="translate(-788.804 -194.799)" fill="#212121" fill-rule="evenodd"/><path d="M925.8,191.63a1.4,1.4,0,1,0,0,2.791h0a1.4,1.4,0,0,0,0-2.791Zm0,2.57h0a1.176,1.176,0,1,1,1.168-1.183A1.176,1.176,0,0,1,925.8,194.2Z" transform="translate(-784.136 -191.544)" fill="#212121" fill-rule="evenodd"/></g></g></svg>