<svg xmlns="http://www.w3.org/2000/svg" width="223.196" height="30" viewBox="0 0 223.196 30"><g transform="translate(-42 -193.52)"><g transform="translate(42 193.52)"><g transform="translate(167.407 0)"><path d="M742.871,193.52l-25.831,30h12.551l25.873-30Z" transform="translate(-717.04 -193.52)" fill="#212121" fill-rule="evenodd"/><path d="M813.931,193.52l-25.831,30h12.593l25.573-29.7v-.3Z" transform="translate(-770.477 -193.52)" fill="#212121" fill-rule="evenodd"/></g><g transform="translate(0 6.919)"><path d="M42.816,234.493a.826.826,0,0,1-.816-.858V223.318a.854.854,0,0,1,.816-.858H64.694a16.389,16.389,0,0,1,7.78,1.848c1.977,1.118,3.095,2.579,3.095,4.127s-1.118,3.008-3.095,4.127a16.259,16.259,0,0,1-7.78,1.848H42.816Zm7.522-9.712a.9.9,0,0,0-.858.9v5.543a.872.872,0,0,0,.858.9H61.557c3.4,0,6.016-1.632,6.016-3.7s-2.666-3.7-6.016-3.7Z" transform="translate(-42 -222.202)" fill="#212121" fill-rule="evenodd"/><path d="M363.616,234.493a.854.854,0,0,1-.816-.858V223.318a.854.854,0,0,1,.816-.858l21.876.042a16.248,16.248,0,0,1,7.78,1.805c1.979,1.118,3.095,2.579,3.095,4.127s-1.116,3.008-3.095,4.127a16.128,16.128,0,0,1-7.78,1.805Zm7.522-9.712a.9.9,0,0,0-.861.9v5.543a.873.873,0,0,0,.861.9h11.217c3.4,0,6.019-1.632,6.019-3.653,0-2.063-2.666-3.653-6.019-3.653l-11.217-.042Z" transform="translate(-283.243 -222.202)" fill="#212121" fill-rule="evenodd"/><g transform="translate(38.511)"><path d="M215.342,234.055c-1.763,0-3.053-.042-4.3-.087h-.087a26.509,26.509,0,0,1-9.756-1.977c-2.537-1.161-3.911-2.663-3.911-4.256,0-3.266,6.016-6.016,13.709-6.232,1.461-.042,2.966-.084,4.385-.084s2.921.042,4.385.084c7.693.216,13.667,2.966,13.667,6.232,0,1.592-1.376,3.1-3.911,4.256a26.52,26.52,0,0,1-9.756,1.977h-.087c-1.29.045-2.579.087-4.34.087Zm0-10.314c-.774,0-1.634.042-2.408.042-4.6.129-7.909,1.805-7.909,3.953s3.311,3.827,7.909,3.956h.042c.732,0,1.376.042,2.366.042s1.632-.042,2.363-.042h.042c4.556-.171,7.909-1.805,7.909-3.956s-3.308-3.824-7.909-3.953c-.816-.042-1.632-.042-2.406-.042Z" transform="translate(-197.29 -221.42)" fill="#212121" fill-rule="evenodd"/></g><path d="M529.2,234.493h-.345c-8.167-.042-12.506-2.105-12.506-6.016,0-3.137,5.5-5.758,12.506-5.974.431,0,.947-.042,1.505-.042h20.157c.171,0,.474.042.474.429v1.419a.4.4,0,0,1-.474.429H532.983c-.687,0-1.376,0-2.063.045-1.632.042-6.877.558-6.877,3.653,0,2.192,2.837,3.524,6.877,3.7h0c.645.045,1.2.045,2.063.045h9.543c.513,0,.9-.129.9-.645v-1.376c0-.516-.387-.687-.9-.687H532.9a.4.4,0,0,1-.387-.431v-1.2a.419.419,0,0,1,.474-.429h17.236a.816.816,0,0,1,.816.816v5.374a.816.816,0,0,1-.816.816h-18.7C530.706,234.493,529.8,234.493,529.2,234.493Z" transform="translate(-398.713 -222.202)" fill="#212121" fill-rule="evenodd"/><path d="M679.728,234.621a.815.815,0,0,1-.818-.816V223.446a.817.817,0,0,1,.818-.816h29.655a.491.491,0,0,1,.474.474v1.332a.457.457,0,0,1-.474.474h-21.7a1,1,0,0,0-1.119.945v.774c0,.645.516.9,1.119.9h20.589a.455.455,0,0,1,.471.471v1.161a.456.456,0,0,1-.474.474H687.637c-.645,0-1.119.345-1.119.945v.818c0,.645.516.9,1.119.9h22.134a.428.428,0,0,1,.474.471V234.1a.457.457,0,0,1-.474.474Z" transform="translate(-520.959 -222.33)" fill="#212121" fill-rule="evenodd"/></g></g></g></svg>