<svg xmlns="http://www.w3.org/2000/svg" viewBox="0 0 1080 1080" width="1080" height="1080" preserveAspectRatio="xMidYMid meet" style="width: 100%;height: 100%;transform: translate3d(0px, 0px, 0px);content-visibility: visible;"><defs><clipPath id="__lottie_element_133"><rect width="1080" height="1080" x="0" y="0"></rect></clipPath></defs><g clip-path="url(#__lottie_element_133)"><g transform="matrix(1,0,0,1,0,-24)" opacity="1" style="display: block;"><g opacity="0.6" transform="matrix(1,0,0,1,239.0469970703125,528.0499877929688)"><path fill="rgb(153,172,248)" fill-opacity="1" d=" M-77.90399932861328,-12.821000099182129 C-72.47100067138672,-17.454999923706055 -53.5359992980957,-17 -42.45899963378906,-17 C-31.382999420166016,-17 -9.545999526977539,-16.509000778198242 -3.5329999923706055,-8.887999534606934 C2.4800000190734863,-1.2669999599456787 -14.21399974822998,6.8460001945495605 -40.04600143432617,6.8460001945495605 C-65.87799835205078,6.8460001945495605 -94.04399871826172,0.9459999799728394 -77.90399932861328,-12.821000099182129z"></path></g><g opacity="1" transform="matrix(1,0,0,1,889.8480224609375,627.0819702148438)"><path fill="rgb(153,172,248)" fill-opacity="1" d=" M-31.79199981689453,-43.20800018310547 C-31.79199981689453,-43.20800018310547 15.555000305175781,-42.19499969482422 32.63100051879883,-39.3120002746582 C49.70600128173828,-36.42900085449219 71.43800354003906,-15.432000160217285 52.422000885009766,6.670000076293945 C33.40599822998047,28.77199935913086 5.247000217437744,26.194000244140625 -74.56900024414062,26.194000244140625 C-60.89799880981445,-17.642000198364258 -31.79199981689453,-43.20800018310547 -31.79199981689453,-43.20800018310547z"></path></g><g opacity="1" transform="matrix(1,0,0,1,417.71600341796875,703.0989990234375)"><path fill="rgb(153,172,248)" fill-opacity="1" d=" M-154.89700317382812,-113.9260025024414 C-154.89700317382812,-113.9260025024414 -170.63900756835938,-118.0530014038086 -238.61399841308594,-107.75 C-280.3760070800781,-101.41999816894531 -315.9309997558594,-81.7249984741211 -297.989013671875,-55.03499984741211 C-286.1520080566406,-37.426998138427734 -253.427001953125,-30.007999420166016 -223.64500427246094,-4.175000190734863 C-193.86300659179688,21.656999588012695 -253.75999450683594,35.4630012512207 -275.760009765625,80.5790023803711 C-288.1159973144531,105.91799926757812 -250.8070068359375,127.51899719238281 -166.78700256347656,140.14999389648438 C-76.69599914550781,153.69400024414062 -71.45099639892578,109.30400085449219 114.12200164794922,120.73100280761719 C196.29600524902344,125.79100036621094 273.4840087890625,215.88299560546875 328.5840148925781,127.572998046875 C356.8689880371094,82.23999786376953 272.3160095214844,29.246999740600586 175.0780029296875,-9.211999893188477 C23.256999969482422,-40.141998291015625 -154.89700317382812,-113.9260025024414 -154.89700317382812,-113.9260025024414z"></path></g><g opacity="1" transform="matrix(1,0,0,1,544.3289794921875,597.6810302734375)"><path fill="rgb(239,246,255)" fill-opacity="1" d=" M333.0899963378906,0 C333.0899963378906,78.93299865722656 260.7619934082031,152.4290008544922 -4.507999897003174,170.90199279785156 C-222.6719970703125,186.09500122070312 -333.0889892578125,78.93299865722656 -333.0889892578125,0 C-333.0889892578125,-78.93299865722656 -221.7270050048828,-142.9199981689453 -3.0350000858306885,-142.9199981689453 C215.65699768066406,-142.9199981689453 333.0899963378906,-78.93299865722656 333.0899963378906,0z"></path></g><g opacity="1" transform="matrix(1,0,0,1,570.4739990234375,595.7169799804688)"><path fill="rgb(245,212,236)" fill-opacity="1" d=" M-131.0500030517578,-94.5469970703125 C-131.0500030517578,-94.5469970703125 -287.0169982910156,-50.8849983215332 -295.65399169921875,109.66799926757812 C-208.6750030517578,176.97300720214844 -98.73400115966797,173.48699951171875 -98.73400115966797,173.48699951171875 C-98.73400115966797,173.48699951171875 -108.76599884033203,4.8470001220703125 -44.479000091552734,-83.84400177001953 C-19.093000411987305,-83.02300262451172 35.5629997253418,-87.6729965209961 58.77899932861328,-85.26799774169922 C157.7429962158203,-75.01699829101562 208.0229949951172,-37.72700119018555 282.99700927734375,72.44200134277344 C321.0169982910156,30.683000564575195 303.343994140625,-21.354000091552734 300.2300109863281,-32.744998931884766 C287.3890075683594,-54 263.82501220703125,-89.83599853515625 191.78700256347656,-112.7959976196289 C139.2270050048828,-125.75599670410156 102.62200164794922,-143.052001953125 102.62200164794922,-143.052001953125 C102.62200164794922,-143.052001953125 -215.11199951171875,-122.81800079345703 -215.11199951171875,-122.81800079345703 C-215.11199951171875,-122.81800079345703 -222.4199981689453,-117.08100128173828 -243.59500122070312,-113.66799926757812 C-260.51300048828125,-106.19000244140625 -260.7969970703125,-107.16699981689453 -260.7969970703125,-107.16699981689453 C-260.7969970703125,-107.16699981689453 -131.0500030517578,-94.5469970703125 -131.0500030517578,-94.5469970703125z"></path></g><g opacity="0.7000000000000001" transform="matrix(1,0,0,1,544.3300170898438,539.614013671875)"><path fill="rgb(226,202,236)" fill-opacity="1" d=" M228.9600067138672,0 C228.9600067138672,38.630001068115234 148.23800659179688,69.9469985961914 -2.0869998931884766,69.9469985961914 C-152.41200256347656,69.9469985961914 -228.9600067138672,38.630001068115234 -228.9600067138672,0 C-228.9600067138672,-38.63100051879883 -152.41200256347656,-69.9469985961914 -2.0869998931884766,-69.9469985961914 C148.23800659179688,-69.9469985961914 228.9600067138672,-38.63100051879883 228.9600067138672,0z"></path></g><g opacity="1" transform="matrix(1,0,0,1,651.6719970703125,580.041015625)"><path fill="rgb(253,194,113)" fill-opacity="1" d=" M-57.599998474121094,-20 C-57.599998474121094,-20 -51.172000885009766,5.459000110626221 -61.95899963378906,27.079999923706055 C-68.0199966430664,39.22800064086914 -61.638999938964844,57.15999984741211 -45.95899963378906,62.599998474121094 C-30.280000686645508,68.04000091552734 11.00100040435791,71.23999786376953 23.799999237060547,54.91999816894531 C36.599998474121094,38.599998474121094 41.327999114990234,30.958999633789062 28.92099952697754,-1.4800000190734863 C9.82800006866455,-43.04100036621094 -16.31999969482422,-59.2400016784668 -16.31999969482422,-59.2400016784668 C-16.31999969482422,-59.2400016784668 -57.599998474121094,-20 -57.599998474121094,-20z"></path></g><g opacity="1" transform="matrix(1,0,0,1,676.0360107421875,548.968017578125)"><path fill="rgb(254,173,86)" fill-opacity="1" d=" M-80.01899719238281,35.909000396728516 C-80.01899719238281,35.909000396728516 12.329000473022461,43.1619987487793 -0.49000000953674316,19.040000915527344 C-7.535999774932861,5.7820000648498535 -17.785999298095703,-4.7179999351501465 -24.31100082397461,-13.479999542236328 C-74.81300354003906,-10.97700023651123 -81.6709976196289,11.350000381469727 -81.6709976196289,11.350000381469727 C-81.6709976196289,11.350000381469727 -80.61499786376953,18.139999389648438 -79.85600280761719,24.69700050354004 C-79.03600311279297,31.781999588012695 -80.01899719238281,35.909000396728516 -80.01899719238281,35.909000396728516z"></path></g><g opacity="1" transform="matrix(1,0,0,1,483.69000244140625,570.041015625)"><path fill="rgb(253,194,113)" fill-opacity="1" d=" M-57.599998474121094,-20 C-57.599998474121094,-20 -67.68900299072266,-9.041000366210938 -79.7750015258789,7.038000106811523 C-87.93199920654297,17.891000747680664 -92.0719985961914,34.492000579833984 -80.10700225830078,45.99399948120117 C-68.14199829101562,57.49599838256836 -34.1609992980957,70.38899993896484 -13.53499984741211,68.20999908447266 C-1.690000057220459,66.95899963378906 9.3100004196167,59.45899963378906 3.930000066757202,17.63599967956543 C5.309999942779541,-5.040999889373779 -0.3199999928474426,-18.739999771118164 -0.3199999928474426,-18.739999771118164 C-0.3199999928474426,-18.739999771118164 -57.599998474121094,-20 -57.599998474121094,-20z"></path></g><g opacity="1" transform="matrix(1,0,0,1,489.2669982910156,540.9310302734375)"><path fill="rgb(254,173,86)" fill-opacity="1" d=" M-61.944000244140625,3.9709999561309814 C-61.944000244140625,3.9709999561309814 -63.25600051879883,54.15800094604492 -1.555999994277954,21.479999542236328 C-26.4689998626709,-22.520999908447266 -34.14699935913086,-23.347999572753906 -34.14699935913086,-23.347999572753906 C-34.14699935913086,-23.347999572753906 -61.944000244140625,3.9709999561309814 -61.944000244140625,3.9709999561309814z"></path></g><g opacity="1" transform="matrix(1,0,0,1,564.2520141601562,421.8900146484375)"><path fill="rgb(253,194,113)" fill-opacity="1" d=" M-28.26799964904785,-140.64999389648438 C18.43899917602539,-142.55099487304688 43.89699935913086,-130.3090057373047 61.176998138427734,-106.78900146484375 C78.45800018310547,-83.26899719238281 82.24800109863281,-80.88999938964844 103.697998046875,-23.608999252319336 C109.72200012207031,-7.52400016784668 120.30799865722656,23.97800064086914 121.697998046875,37.83100128173828 C127.74800109863281,98.11000061035156 92.74800109863281,133.10899353027344 33.37799835205078,141.22999572753906 C3.9600000381469727,145.25399780273438 -28.25200080871582,134.10899353027344 -35.222999572753906,129.91000366210938 C-50.75199890136719,131.10899353027344 -77.97899627685547,153.85899353027344 -121.02300262451172,137.6199951171875 C-170.7519989013672,118.85900115966797 -144.7519989013672,48.60900115966797 -135.48300170898438,28.850000381469727 C-116.26300048828125,-12.119999885559082 -144.95799255371094,-88.16799926757812 -123.44300079345703,-116.6500015258789 C-87.72000122070312,-126.43399810791016 -72.47699737548828,-138.8509979248047 -28.26799964904785,-140.64999389648438z"></path></g><g opacity="1" transform="matrix(1,0,0,1,398.25,433.2409973144531)"><path fill="rgb(255,141,118)" fill-opacity="1" d=" M42.560001373291016,-128 C32.959999084472656,-127.68000030517578 17.740999221801758,-114.41999816894531 4.940000057220459,-76.66000366210938 C-7.860000133514404,-38.900001525878906 -0.9700000286102295,-28.83300018310547 -15.0600004196167,-2.240000009536743 C-31.75,29.259000778198242 -47.25,63.75899887084961 -29.059999465942383,98.55999755859375 C-20.858999252319336,114.25 -9.75,120.6760025024414 9.16100025177002,111.45999908447266 C36.25,98.25900268554688 -5.25,99.75900268554688 31,16.84000015258789 C45.53499984741211,-16.409000396728516 38.91999816894531,-43.63999938964844 37,-72.44000244140625 C35.08100128173828,-101.23999786376953 30.75,-105.74099731445312 42.560001373291016,-128z"></path></g><g opacity="1" transform="matrix(1,0,0,1,538.6890258789062,427.781005859375)"><path fill="rgb(28,48,119)" fill-opacity="1" d=" M-51.540000915527344,-3.5 C-51.540000915527344,3.6579999923706055 -57.34199905395508,9.460000038146973 -64.5,9.460000038146973 C-71.65699768066406,9.460000038146973 -77.45999908447266,3.6579999923706055 -77.45999908447266,-3.5 C-77.45999908447266,-10.657999992370605 -71.65699768066406,-16.459999084472656 -64.5,-16.459999084472656 C-57.34199905395508,-16.459999084472656 -51.540000915527344,-10.657999992370605 -51.540000915527344,-3.5z"></path></g><g opacity="1" transform="matrix(1,0,0,1,643.969970703125,428.281005859375)"><path fill="rgb(28,48,119)" fill-opacity="1" d=" M-59.540000915527344,-3 C-59.540000915527344,4.1579999923706055 -65.34200286865234,9.960000038146973 -72.5,9.960000038146973 C-79.65699768066406,9.960000038146973 -85.45999908447266,4.1579999923706055 -85.45999908447266,-3 C-85.45999908447266,-10.157999992370605 -79.65699768066406,-15.960000038146973 -72.5,-15.960000038146973 C-65.34200286865234,-15.960000038146973 -59.540000915527344,-10.157999992370605 -59.540000915527344,-3z"></path></g><g opacity="1" transform="matrix(1,0,0,1,538.3720092773438,387.5329895019531)"><path fill="rgb(255,141,118)" fill-opacity="1" d=" M-86.95500183105469,3.484999895095825 C-86.13700103759766,-1.2389999628067017 -73.20099639892578,-2.3589999675750732 -66.08899688720703,-4.232999801635742 C-58.97700119018555,-6.10699987411499 -50.03499984741211,-4.377999782562256 -48.54600143432617,4.7210001945495605 C-47.05699920654297,13.821000099182129 -64.80400085449219,14.850000381469727 -70.80699920654297,13.857999801635742 C-76.81199645996094,12.866000175476074 -87.85299682617188,8.670999526977539 -86.95500183105469,3.484999895095825z"></path></g><g opacity="1" transform="matrix(1,0,0,1,639.9030151367188,387.2070007324219)"><path fill="rgb(255,141,118)" fill-opacity="1" d=" M-44.11399841308594,3.0989999771118164 C-44.66299819946289,-1.2109999656677246 -55.57600021362305,-3.49399995803833 -61.53900146484375,-5.873000144958496 C-67.5009994506836,-8.251999855041504 -75.11900329589844,-7.589000225067139 -76.65499877929688,0.4090000092983246 C-78.19200134277344,8.407999992370605 -63.20399856567383,11.083000183105469 -58.09299850463867,10.788000106811523 C-52.981998443603516,10.493000030517578 -43.51100158691406,7.829999923706055 -44.11399841308594,3.0989999771118164z"></path></g><g opacity="1" transform="matrix(1,0,0,1,623.2899780273438,480.08099365234375)"><path fill="rgb(28,48,119)" fill-opacity="1" d=" M-121.10099792480469,-5.739999771118164 C-120.18499755859375,-11.140999794006348 -82.14099884033203,-12.9399995803833 -78.82099914550781,-5.739999771118164 C-75.5,1.4600000381469727 -85.82099914550781,19.940000534057617 -96.37999725341797,19.940000534057617 C-106.94100189208984,19.940000534057617 -123.5,8.420000076293945 -121.10099792480469,-5.739999771118164z"></path></g><g opacity="1" transform="matrix(1,0,0,1,627.1129760742188,496.52099609375)"><path stroke-linecap="round" stroke-linejoin="miter" fill-opacity="0" stroke-miterlimit="10" stroke="rgb(28,48,119)" stroke-opacity="1" stroke-width="7" d=" M-101.19100189208984,1.6399999856948853 C-101.19100189208984,1.6399999856948853 -100.40299987792969,16.280000686645508 -102.59700012207031,32.36000061035156"></path></g><g opacity="1" transform="matrix(1,0,0,1,481.6289978027344,604.2449951171875)"><path stroke-linecap="round" stroke-linejoin="miter" fill-opacity="0" stroke-miterlimit="10" stroke="rgb(253,148,51)" stroke-opacity="1" stroke-width="7" d=" M-69.76000213623047,13.392000198364258 C-69.76000213623047,13.392000198364258 -73.12899780273438,1.253999948501587 -65.72000122070312,-8.892999649047852"></path></g><g opacity="1" transform="matrix(1,0,0,1,457.74200439453125,613.5469970703125)"><path stroke-linecap="round" stroke-linejoin="miter" fill-opacity="0" stroke-miterlimit="10" stroke="rgb(253,148,51)" stroke-opacity="1" stroke-width="7" d=" M-10.026000022888184,18.194000244140625 C-10.026000022888184,18.194000244140625 -12.743000030517578,4.453000068664551 -4.21999979019165,-6.195000171661377"></path></g><g opacity="1" transform="matrix(1,0,0,1,623.6119995117188,624.2449951171875)"><path stroke-linecap="round" stroke-linejoin="miter" fill-opacity="0" stroke-miterlimit="10" stroke="rgb(253,153,59)" stroke-opacity="1" stroke-width="7" d=" M-1.7589999437332153,11.392000198364258 C-1.7589999437332153,11.392000198364258 2.7200000286102295,-0.5789999961853027 -2.7190001010894775,-11.392999649047852"></path></g><g opacity="1" transform="matrix(1,0,0,1,660.2249755859375,621.0469970703125)"><path stroke-linecap="round" stroke-linejoin="miter" fill-opacity="0" stroke-miterlimit="10" stroke="rgb(253,148,51)" stroke-opacity="1" stroke-width="7" d=" M-0.026000000536441803,10.194000244140625 C-0.026000000536441803,10.194000244140625 2.7200000286102295,0.6200000047683716 -2.7200000286102295,-10.194999694824219"></path></g><g opacity="0.6" transform="matrix(1,0,0,1,872.89599609375,754.8629760742188)"><path fill="rgb(153,172,248)" fill-opacity="1" d=" M-63.75600051879883,-6.071000099182129 C-57.5260009765625,-11.383999824523926 -35.814998626708984,-10.86299991607666 -23.11400032043457,-10.86299991607666 C-10.413999557495117,-10.86299991607666 14.62399959564209,-10.298999786376953 21.518999099731445,-1.5609999895095825 C28.413999557495117,7.177000045776367 9.270999908447266,16.479999542236328 -20.347999572753906,16.479999542236328 C-49.96699905395508,16.479999542236328 -82.26300048828125,9.71399974822998 -63.75600051879883,-6.071000099182129z"></path></g><g opacity="1" transform="matrix(1,0,0,1,659.7080078125,424.6390075683594)"><path fill="rgb(255,141,118)" fill-opacity="1" d=" M-39.69900131225586,-119.39900207519531 C-30.743999481201172,-119.10099792480469 -2.0889999866485596,-121.19000244140625 9.85200023651123,-85.96700286865234 C21.791000366210938,-50.744998931884766 31.04400062561035,-25.073999404907227 47.16299819946289,-2.0889999866485596 C63.28200149536133,20.893999099731445 75.6510009765625,58.72999954223633 47.16299819946289,91.93699645996094 C37.79199981689453,102.86000061035156 27.420000076293945,113.0260009765625 9.809000015258789,104.36900329589844 C-7.802999973297119,95.71299743652344 -12.697999954223633,89.38500213623047 -7.623000144958496,40.43199920654297 C-2.5490000247955322,-8.522000312805176 -29.70800018310547,-34.63999938964844 -34.236000061035156,-72.73600006103516 C-37.41400146484375,-99.47200012207031 -47.75899887084961,-108.05599975585938 -39.69900131225586,-119.39900207519531z"></path></g></g></g></svg>