<svg xmlns="http://www.w3.org/2000/svg" width="101.761" height="40" viewBox="0 0 101.761 40"><g transform="translate(108.997 -76.32)"><path d="M118.356,83.507c0,1.861-6.523,5.417-12.069,5.417-8.623,0-17.6-4.128-21.723-5.068-4.5-1.05-8.567-1.915-11.774-1.915-11.239,0-16.25,4.827-16.03,9.267.111,1.806,1.566,2.967,3.722,2.561,2.321-.4,5.6-2.616,6.412-4.551a.625.625,0,0,1,.811-.349.713.713,0,0,1,.24.7c-.3,2.266-3.8,8.567-9.839,8.567-3.372,0-5.657-3.15-5.6-6.228.055-5.766,5.951-11.588,20.452-11.588a55.462,55.462,0,0,1,9.213.811,151.031,151.031,0,0,0,21.556,2.45,68.5,68.5,0,0,0,9.673-.351c3.207-.516,2.506-.645,3.8-.645,1.161-.018,1.161.442,1.161.922Zm22.257,26.845c-.24,0-.646.516-.866.811-1.106,1.161-5.712,5.951-8.218,6.062.516,0-.866.3-.995-.811a4.547,4.547,0,0,1,.755-2.045L143.764,92.3h-4.606l-7.517,12.694c-.59-1.161-1.456-3.906-4.9-3.961-5.711-.055-7.923,3.85-11.883,7.572a7.533,7.533,0,0,1-5.768,2.45,2.9,2.9,0,0,1-2.966-3.445c.239-1.511.755-2.266,1.86-2.672a3.087,3.087,0,0,0,3.207,2.321,3.368,3.368,0,0,0,3.095-3.316,2.994,2.994,0,0,0-3.15-3.021c-2.156-.111-3.8.866-6.117,3.556,0,0,.589-3.962-3.8-3.851a2.889,2.889,0,0,0-1.4.24c-2.4.755-5.472,4.606-7.923,7.572a9.381,9.381,0,0,0,.11-1.75,7.812,7.812,0,0,0-1.806-5.067.843.843,0,0,0-.7-.24,1.491,1.491,0,0,0-1.4,1.639,5.5,5.5,0,0,1,1.344,3.446,13.037,13.037,0,0,1-1,4.956c-2.21,3.8-5.011,6.228-8.383,5.712-1.806-.406-3.022-2.156-2.672-4.773a12.607,12.607,0,0,1,1.99-4.9,11.133,11.133,0,0,1,7.334-4.55,1.1,1.1,0,0,0-.3-1.05,1.178,1.178,0,0,0-1.217-.646c-4.956.166-7.978,3.722-9.728,7.223-.644,1.217-1.566,2.967-2.1,4.072a7.471,7.471,0,0,1-2.616,2.911c-1.106.866-1.456,1.161-1.641,1.106a2.634,2.634,0,0,0,.866,1.455c.166.111.756-.24.995-.35,2.745-1.566,3.022-2.321,3.022-2.321.589,3.262,3.372,4.957,6.466,4.957,4.257,0,8.162-3.851,10.429-7.223a67.186,67.186,0,0,1,5.656-7.057c1.29-1.217,2.616-2.045,3.445-2.045a1.146,1.146,0,0,1,1.106,1.4,14.522,14.522,0,0,1-1.511,3.85l-6.357,10.779H98.2c2.855-5.362,2.966-5.527,5.766-10.668.755,2.856,2.266,3.962,4.717,4.016a9.688,9.688,0,0,0,5.122-.865,6.793,6.793,0,0,0,.349,4.366,4.771,4.771,0,0,0,4.606,3.1,14.024,14.024,0,0,0,7.812-2.395c.3,1.695,1.106,2.561,3.262,2.561,4.367-.111,8.217-4.606,10.539-7.518a5.434,5.434,0,0,0,.94-1.64c0-.331-.461-.571-.7-.571Zm-11.48-1.382a32.764,32.764,0,0,1-4.016,5.362c-3.611,3.666-5.951,2.45-6.467,2.044a4.048,4.048,0,0,1-.7-3.316,12.571,12.571,0,0,1,2.321-5.177c2.1-2.561,4.662-4.311,6.707-4.072,2.506.3,2.745,2.745,1.511,5.011ZM87.716,92.59a2.059,2.059,0,0,0-1.751-1.99c-1.86-.294-3.316,1.217-3.5,3.722a5.51,5.51,0,0,0,.24,1.4,73.068,73.068,0,0,1-7.572.866A36.126,36.126,0,0,1,84.565,85.7a4.919,4.919,0,0,0,.866-.94.671.671,0,0,0-.516-.94c-1.4-.055-8.162,4.956-13.4,12.989-1.346.166-6.928.644-8.789,2.745a2.006,2.006,0,0,0-.351.755c.111.46.461.7.995.3,1.161-1.346,5.877-1.861,6.983-1.917-6.872,9.673-13.229,16.03-18.867,16.03a6.736,6.736,0,0,1-1.806-.111c-2.266-.516-3.611-2.911-3.611-5.067,0-2.856,2.745-5.951,4.311-6.523.516-.239.755-.516.755-.755,0-.349-.24-.589-.866-.589-5.417,1.344-8.327,5.766-8.272,9.378.11,5.952,4.606,9.268,9.673,9.268,7.112,0,10.723-3.1,22.312-21.853,4.606-.46,6.873-.755,9.213-1.16A2.82,2.82,0,0,0,85.651,99c.3.055.24-.24.406-.866-.755-.055-1.639-.589-1.639-1.215a10.553,10.553,0,0,0,1.806-1.161A5.367,5.367,0,0,0,87.716,92.59ZM84.1,95.612a3.781,3.781,0,0,1,0-2.267,1.861,1.861,0,0,1,1.639-1.455c.4-.055.589.35.644.7a3.133,3.133,0,0,1-.811,2.1C84.694,95.686,84.1,95.612,84.1,95.612Z" transform="translate(-151 -4)" fill="#212121" fill-rule="evenodd"/></g></svg>