<svg xmlns="http://www.w3.org/2000/svg" width="100.262" height="40" viewBox="0 0 100.262 40"><g transform="translate(-68 -76.47)"><path d="M42.092,92.42h8.2v2.932c0,6.787,9.08,6.793,9.08-.293V74.47H67.64V95.718q0,5.463-3.352,8.321T54.564,106.9q-6.316,0-9.442-3.041T42,94.665c0-.453.031-1.162.092-2.12Zm35.205.322h7.2a5.2,5.2,0,0,0-1.046-3.152,3.306,3.306,0,0,0-2.636-1.052A3.1,3.1,0,0,0,78.3,89.655,5.024,5.024,0,0,0,77.3,92.742Zm7.158,7.169h7.739a8.793,8.793,0,0,1-3.694,5.618,13.29,13.29,0,0,1-7.523,1.906,10.9,10.9,0,0,1-8.306-3.243A12.137,12.137,0,0,1,69.6,95.473q0-5.707,3.139-9.011a11.246,11.246,0,0,1,8.543-3.3,10.579,10.579,0,0,1,8.5,3.592c2.049,2.4,2.681,5.719,2.681,9.972v.54l-15.16.021c.062,2.37,1.068,4.918,3.739,4.918s3.059-1.106,3.419-2.294Zm17.3-7.169h7.2a5.2,5.2,0,0,0-1.046-3.152,3.308,3.308,0,0,0-2.636-1.052,3.1,3.1,0,0,0-2.513,1.116A5.024,5.024,0,0,0,101.754,92.742Zm7.158,7.169h7.739a8.793,8.793,0,0,1-3.694,5.618,13.29,13.29,0,0,1-7.523,1.906,10.9,10.9,0,0,1-8.307-3.243,12.141,12.141,0,0,1-3.075-8.719q0-5.707,3.138-9.011a11.251,11.251,0,0,1,8.545-3.3,10.579,10.579,0,0,1,8.5,3.592c2.049,2.4,2.681,5.719,2.681,9.972v.54l-15.16.021c.062,2.37,1.068,4.918,3.739,4.918s3.059-1.106,3.419-2.294Zm25.361-3.7a9.437,9.437,0,0,0-1.036-4.98,3.488,3.488,0,0,0-3.156-1.63,3.716,3.716,0,0,0-3.338,1.585,9.337,9.337,0,0,0-1.043,5.024,8.835,8.835,0,0,0,1.067,4.845,3.989,3.989,0,0,0,6.42-.018,8.737,8.737,0,0,0,1.085-4.827ZM117.859,114.47V84.027h7.656V86.8l.013.309q.206-.334.433-.634c1.513-1.979,3.541-3.095,6.831-2.97,6.558.251,9.469,6.5,9.469,12.386s-2.641,12.183-9.271,12.1c-2.942-.037-5.194-.912-6.74-2.726v9.2h-8.392Z" transform="translate(26 2)" fill="#212121" fill-rule="evenodd"/></g></svg>