<?xml version="1.0" encoding="UTF-8" standalone="no"?>
<svg
   id="body_1"
   width="38"
   height="9"
   version="1.1"
   sodipodi:docname="logo.svgz"
   xmlns:inkscape="http://www.inkscape.org/namespaces/inkscape"
   xmlns:sodipodi="http://sodipodi.sourceforge.net/DTD/sodipodi-0.dtd"
   xmlns="http://www.w3.org/2000/svg"
   xmlns:svg="http://www.w3.org/2000/svg">
  <defs
     id="defs59" />
  <sodipodi:namedview
     id="namedview57"
     pagecolor="#ffffff"
     bordercolor="#000000"
     borderopacity="0.25"
     inkscape:showpageshadow="2"
     inkscape:pageopacity="0.0"
     inkscape:pagecheckerboard="0"
     inkscape:deskcolor="#d1d1d1" />
  <g
     transform="scale(0.03799999,0.036)"
     id="g54">
    <g
       id="g52">
      <g
         id="g50">
        <path
           d="m 54.3,110.33 c 11.3,0 21.2,-5.94 26.33,-15.15 v 0 L 67.579994,87.73 c -2.330004,4.77 -7.34,7.690006 -13.400001,7.690006 -4.540003,0 -8.270001,-1.519996 -11.189999,-4.430001 -2.91,-3.029995 -4.420002,-6.879995 -4.420002,-11.419995 0,-9.32 6.639998,-15.96 15.610001,-15.96 5.939997,0 10.949997,3.03 13.279997,7.8 v 0 l 12.940004,-7.57 C 75.619995,54.630013 65.59999,48.810013 54.299995,48.810013 c -8.739997,0 -16.080001,2.91 -22.029998,8.849997 -5.82,5.950002 -8.73,13.17 -8.73,21.91 0,8.739995 2.91,15.96 8.73,21.91 5.95,5.94 13.290001,8.85 22.029998,8.85 v 0 z"
           stroke="none"
           fill="#212121"
           fill-rule="nonzero"
           id="path2" />
        <path
           d="m 137.26,101.48 c 5.94,-5.94999 8.97,-13.29 8.97,-21.90999 0,-8.620005 -3.03,-15.85 -8.97,-21.790004 -5.94001,-5.939998 -13.28,-8.970001 -21.90001,-8.970001 -8.62999,0 -15.97,3.029999 -21.90999,8.970001 -5.940005,5.939999 -8.85,13.169999 -8.85,21.790004 0,8.62 2.91,15.96 8.85,21.91 5.94,5.94 13.28,8.85 21.91,8.85 8.62,0 15.96,-2.91 21.9,-8.85 v 0 z M 104.04999,91.11 C 101.13999,88.08 99.63,84.23 99.63,79.57 c 0,-4.66 1.51,-8.51 4.41999,-11.54 3.03,-3.03 6.76001,-4.540002 11.31,-4.540002 4.54,0 8.27,1.510002 11.30001,4.540002 3.03,3.03 4.54,6.879996 4.54,11.54 0,4.659996 -1.51,8.51 -4.54,11.54 -3.03,3.02 -6.76001,4.54 -11.30001,4.54 -4.55,0 -8.28,-1.519995 -11.31,-4.54 z"
           stroke="none"
           fill="#212121"
           fill-rule="nonzero"
           id="path4" />
        <path
           d="m 221.27,48.81 c -7.69,0 -13.52,2.8 -17.36,8.39 -3.38,-5.59 -8.74,-8.39 -15.85,-8.39 -7.34,0 -12.7,2.560003 -16.19,7.810003 v 0 -6.180001 H 156.83 V 108.7 h 15.04 V 75.95999 c 0,-8.51 4.31,-13.169997 10.94999,-13.169997 6.17,0 9.79,4.080002 9.79,11.069997 v 0 V 108.7 h 15.02999 V 75.95999 c 0,-8.51 3.96001,-13.169997 10.83001,-13.169997 6.17999,0 9.78999,4.080002 9.78999,11.069997 v 0 V 108.7 h 15.03 V 72.81 c 0,-14.560004 -8.62,-24.000002 -22.02001,-24.000002 v 0 z"
           stroke="none"
           fill="#212121"
           fill-rule="nonzero"
           id="path6" />
        <path
           d="m 290.02,48.81 c -8.15,0 -14.45002,2.8 -18.87,8.5 v 0 -6.869998 H 256.11 V 132 h 15.04 v -30.17 c 4.42,5.7 10.72,8.5 18.87,8.5 7.81,0 14.57,-2.91 20.04,-8.85 5.6,-5.94999 8.39,-13.29 8.39,-21.90999 0,-8.620005 -2.79,-15.85 -8.39,-21.790004 -5.47,-5.939998 -12.23,-8.970001 -20.04,-8.970001 v 0 z m -14.33,42.65001 c -3.03,-3.150005 -4.54,-7.110004 -4.54,-11.89 0,-4.78 1.51,-8.74 4.54,-11.77001 3.03,-3.14 6.87,-4.659997 11.54,-4.659997 4.66,0 8.5,1.519997 11.53,4.659997 3.15,3.03 4.66,6.99 4.66,11.77001 0,4.779996 -1.51,8.739995 -4.66,11.89 -3.03,3.01999 -6.87,4.54 -11.53,4.54 -4.67,0 -8.51,-1.52 -11.54,-4.54 z"
           stroke="none"
           fill="#212121"
           fill-rule="nonzero"
           id="path8" />
        <path
           d="m 367.51,81.9 c 0,9.67 -5.01,14.45 -12.82,14.45 -6.99,0 -11.54,-4.2 -11.54,-12 v 0 -33.91 h -15.03 v 35.77 c 0,7.58 2.1,13.4 6.18,17.71 4.19,4.31 9.44,6.41 15.83998,6.41 7.93,0 13.75,-2.68 17.37,-8.16 v 0 6.53 h 15.03 V 50.44 h -15.03 v 31.459994 z"
           stroke="none"
           fill="#212121"
           fill-rule="nonzero"
           id="path10" />
        <path
           d="M 429.61,50.44 H 416.43997 V 34.129997 l -15.03,4.540003 v 11.77 h -10.14001 v 14.45 h 10.14001 V 89.119995 C 401.40997,105.09 408.98996,111.03 429.61,108.7 v 0 -13.63 c -8.62,0.46 -13.17003,0.35 -13.17003,-5.95 v 0 -24.23 H 429.61 Z"
           stroke="none"
           fill="#212121"
           fill-rule="nonzero"
           id="path12" />
        <path
           d="m 482.74,57.31 c -4.54002,-5.7 -10.83,-8.5 -18.99,-8.5 -7.81,0 -14.45,3.03 -20.04,8.970003 -5.48002,5.939997 -8.27,13.170002 -8.27,21.790007 0,8.62 2.79,15.96 8.27,21.91 5.59,5.94 12.23,8.85 20.04,8.85 8.16,0 14.45,-2.8 18.99,-8.5 v 0 6.87 h 15.03 V 50.440014 h -15.03 v 6.869999 z m -27.73002,34.15001 c -3.03,-3.150005 -4.54001,-7.110004 -4.54001,-11.89 0,-4.78 1.51001,-8.74 4.54001,-11.77001 3.03,-3.14 6.88,-4.659997 11.54002,-4.659997 4.66,0 8.5,1.519997 11.53,4.659997 3.14998,3.03 4.66,6.99 4.66,11.77001 0,4.779996 -1.51002,8.739995 -4.66,11.89 -3.03,3.01999 -6.87,4.54 -11.53,4.54 -4.66002,0 -8.51002,-1.52 -11.54002,-4.54 z"
           stroke="none"
           fill="#212121"
           fill-rule="nonzero"
           id="path14" />
        <path
           d="m 555.57,57.31 c -4.43,-5.7 -10.71996,-8.5 -18.88,-8.5 -7.81,0 -14.57,3.03 -20.16,8.970003 -5.46997,5.939997 -8.26996,13.170002 -8.26996,21.790007 0,8.62 2.79999,15.96 8.26996,21.91 5.59006,5.94 12.35,8.85 20.16,8.85 8.16,0 14.45,-2.8 18.88,-8.5 v 0 6.87 h 15.03004 V 27.140015 H 555.57 v 30.169998 z m -27.74,34.15001 c -3.03,-3.150005 -4.53996,-7.110004 -4.53996,-11.89 0,-4.78 1.51001,-8.74 4.53996,-11.77001 3.15004,-3.14 7,-4.659997 11.66,-4.659997 4.65996,0 8.5,1.519997 11.53,4.659997 3.03005,3.03 4.55,6.99 4.55,11.77001 0,4.779996 -1.52,8.739995 -4.55,11.89 -3.03,3.01999 -6.87,4.54 -11.53,4.54 -4.66,0 -8.51,-1.52 -11.66,-4.54 z"
           stroke="none"
           fill="#212121"
           fill-rule="nonzero"
           id="path16" />
        <path
           d="m 633.98,101.48 c 5.94,-5.94999 8.96995,-13.29 8.96995,-21.90999 0,-8.620005 -3.03005,-15.85 -8.96995,-21.790004 -5.94,-5.939998 -13.28005,-8.970001 -21.90004,-8.970001 -8.63001,0 -15.96996,3.029999 -21.90996,8.970001 -5.94,5.939999 -8.85,13.169999 -8.85,21.790004 0,8.62 2.91,15.96 8.85,21.91 5.94,5.94 13.28,8.85 21.90996,8.85 8.61999,0 15.96004,-2.91 21.90004,-8.85 v 0 z M 600.76996,91.11 C 597.86,88.08 596.35,84.23 596.35,79.57 c 0,-4.66 1.51,-8.51 4.41996,-11.54 3.03004,-3.03 6.76001,-4.540002 11.31,-4.540002 4.53997,0 8.27004,1.510002 11.29998,4.540002 3.03006,3.03 4.53996,6.879996 4.53996,11.54 0,4.659996 -1.51,8.51 -4.53996,11.54 -3.03004,3.02 -6.76001,4.54 -11.29998,4.54 -4.54999,0 -8.28006,-1.519995 -11.31,-4.54 z"
           stroke="none"
           fill="#212121"
           fill-rule="nonzero"
           id="path18" />
        <path
           d="M 668.59,50.44 H 653.55005 V 108.7 H 668.59 V 80.85 c 0,-5.590005 1.74,-9.550005 5.36,-12 3.61,-2.45 7.8,-3.38 12.35,-2.800005 v 0 -16.779998 c -7.93,0 -14.92,3.729999 -17.71003,11.189998 v 0 -10.02 z"
           stroke="none"
           fill="#212121"
           fill-rule="nonzero"
           id="path20" />
        <path
           d="m 737.1,57.31 c -4.54,-5.7 -10.83004,-8.5 -18.99,-8.5 -7.81,0 -14.45,3.03 -20.04,8.970003 -5.48,5.939997 -8.27,13.170002 -8.27,21.790007 0,8.62 2.78997,15.96 8.27,21.91 5.59003,5.94 12.23,8.85 20.04,8.85 8.15996,0 14.45,-2.8 18.99,-8.5 v 0 6.87 h 15.03 V 50.440014 H 737.1 v 6.869999 z m -27.73,34.15001 c -3.03003,-3.150005 -4.54,-7.110004 -4.54,-11.89 0,-4.78 1.51,-8.74 4.54,-11.77001 3.03,-3.14 6.88,-4.659997 11.54,-4.659997 4.65995,0 8.5,1.519997 11.53,4.659997 3.15,3.03 4.66,6.99 4.66,11.77001 0,4.779996 -1.51003,8.739995 -4.66,11.89 -3.03,3.01999 -6.87,4.54 -11.53,4.54 -4.66,0 -8.51004,-1.52 -11.54,-4.54 z"
           stroke="none"
           fill="#212121"
           fill-rule="nonzero"
           id="path22" />
        <path
           d="m 779.17,66.99 c 0,-2.92 2.90996,-4.78 6.76,-4.78 4.31,0 7.46,1.98 9.32,5.94 v 0 l 12.82,-6.989996 c -4.55,-7.919999 -12.7,-12.349999 -22.14,-12.349999 -6.29,0 -11.54,1.630001 -15.85,5.010002 -4.19,3.259999 -6.28996,7.810003 -6.28996,13.520003 0,12.11 10.84003,15.73 19.46002,17.940004 5.94,1.510002 10.59998,3.260002 10.59998,6.410006 0,3.379995 -2.68,5.01 -8.03998,5.01 -5.94,0 -9.66996,-2.57 -11.41996,-7.58 v 0 l -13.05,7.35 c 4.31,9.19999 12.46996,13.86 24.46996,13.86 6.64004,0 12.23999,-1.63 16.65997,-4.78 4.54997,-3.26 6.76001,-7.92 6.76001,-13.86 C 809.35004,79.22002 798.28,75.140015 789.77,73.390015 783.83,71.88001 779.17004,70.13001 779.17004,66.99001 v 0 z"
           stroke="none"
           fill="#212121"
           fill-rule="nonzero"
           id="path24" />
        <path
           d="m 300.47,173.84 c -4.54,-5.7 -10.83,-8.5 -18.99,-8.5 -7.81,0 -14.45,3.03 -20.04,8.97 -5.48,5.94 -8.27,13.17 -8.27,21.79 0,8.62 2.78999,15.96001 8.27,21.91001 5.59,5.94 12.23,8.85001 20.04,8.85001 8.16,0 14.45002,-2.80001 18.99,-8.5 v 0 6.86999 h 15.03 v -58.25999 h -15.03 v 6.86999 z m -27.73,34.14999 c -3.03,-3.14999 -4.54002,-7.11 -4.54002,-11.89 0,-4.78 1.51002,-8.74 4.54002,-11.77 3.03,-3.14 6.88,-4.66001 11.54,-4.66001 4.66,0 8.5,1.52001 11.53,4.66001 3.15,3.03 4.66,6.99 4.66,11.77 0,4.78 -1.51,8.74001 -4.66,11.89 -3.03,3.02001 -6.87,4.53999 -11.53,4.53999 -4.66,0 -8.51,-1.52 -11.54,-4.53999 z"
           stroke="none"
           fill="#212121"
           fill-rule="nonzero"
           id="path26" />
        <path
           d="m 367.59,198.43 c 0,9.66999 -5.01,14.44999 -12.82,14.44999 -6.99,0 -11.54002,-4.19999 -11.54002,-12 v 0 -33.91 h -15.03 v 35.77 c 0,7.58 2.10002,13.39999 6.17999,17.70999 4.19001,4.31 9.44001,6.41001 15.84,6.41001 7.92999,0 13.75,-2.67999 17.37,-8.16001 v 0 6.53 h 15.02999 V 166.96999 H 367.58997 V 198.43 Z"
           stroke="none"
           fill="#212121"
           fill-rule="nonzero"
           id="path28" />
        <path
           d="m 429.69,166.97 h -13.17 v -16.31 l -15.03,4.54 v 11.77 h -10.14002 v 14.45 H 401.49 v 24.23 c 0,15.97 7.57998,21.91 28.2,19.58 v 0 -13.63001 C 421.07,212.06 416.52,211.95 416.52,205.65 v 0 -24.23 h 13.17 z"
           stroke="none"
           fill="#212121"
           fill-rule="nonzero"
           id="path30" />
        <path
           d="m 488.18,218.01 c 5.94,-5.95 8.97,-13.29 8.97,-21.91001 0,-8.61999 -3.03,-15.85001 -8.97,-21.78999 -5.94,-5.94 -13.28,-8.97 -21.9,-8.97 -8.63,0 -15.97,3.03 -21.91,8.97 -5.94,5.94 -8.85,13.17 -8.85,21.79 0,8.62 2.91,15.96001 8.85,21.91001 5.94,5.94 13.28,8.85001 21.91,8.85001 8.62,0 15.96,-2.91001 21.9,-8.85001 v 0 z m -33.21,-10.37 c -2.91,-3.03 -4.42,-6.88 -4.42,-11.54 0,-4.66 1.51,-8.50999 4.42,-11.53999 3.03,-3.03 6.76,-4.53999 11.31,-4.53999 4.54,0 8.27,1.50999 11.3,4.53999 3.03,3.03 4.54,6.88001 4.54,11.53999 0,4.66001 -1.51,8.51 -4.54,11.54 -3.03,3.02 -6.76002,4.54 -11.3,4.54 -4.55,0 -8.28,-1.52001 -11.31,-4.54 z"
           stroke="none"
           fill="#212121"
           fill-rule="nonzero"
           id="path32" />
        <path
           d="m 572.19,165.34 c -7.69,0 -13.52,2.8 -17.36,8.39 -3.38,-5.59 -8.74,-8.39 -15.84996,-8.39 -7.34004,0 -12.70004,2.56 -16.19,7.81 v 0 -6.18 h -15.04001 v 58.26 h 15.04001 v -32.74001 c 0,-8.50999 4.31,-13.17 10.95001,-13.17 6.16998,0 9.78995,4.08001 9.78995,11.06999 v 0 34.84 h 15.03006 v -32.74001 c 0,-8.50999 3.96004,-13.16999 10.83004,-13.16999 6.17997,0 9.78995,4.08 9.78995,11.07 v 0 34.84 h 15.03005 v -35.89 c 0,-14.56 -8.62,-24 -22.02004,-24 v 0 z"
           stroke="none"
           fill="#212121"
           fill-rule="nonzero"
           id="path34" />
        <path
           d="m 656.67,218.01 c 5.94,-5.95 8.96995,-13.29 8.96995,-21.91001 0,-8.61999 -3.03005,-15.85001 -8.96995,-21.78999 -5.94,-5.94 -13.28005,-8.97 -21.90004,-8.97 -8.63001,0 -15.96996,3.03 -21.90996,8.97 -5.94,5.94 -8.85,13.17 -8.85,21.79 0,8.62 2.91,15.96001 8.85,21.91001 5.94,5.94 13.28,8.85001 21.90996,8.85001 8.61999,0 15.96004,-2.91001 21.90004,-8.85001 v 0 z M 623.45996,207.64 C 620.55,204.61 619.04,200.76 619.04,196.1 c 0,-4.66 1.51,-8.50999 4.41996,-11.53999 3.03004,-3.03 6.76004,-4.53999 11.31,-4.53999 4.53998,0 8.27004,1.50999 11.29999,4.53999 3.03005,3.03 4.53995,6.88001 4.53995,11.53999 0,4.66001 -1.51,8.51 -4.53995,11.54 -3.03005,3.02 -6.76001,4.54 -11.29999,4.54 -4.54996,0 -8.28006,-1.52001 -11.31,-4.54 z"
           stroke="none"
           fill="#212121"
           fill-rule="nonzero"
           id="path36" />
        <path
           d="m 708.29,166.97 h -13.17 v -16.31 l -15.03003,4.54 v 11.77 h -10.14002 v 14.45 h 10.14002 v 24.23 c 0,15.97 7.58003,21.91 28.20003,19.58 v 0 -13.63001 C 699.67,212.06 695.12,211.95 695.12,205.65 v 0 -24.23 h 13.17 z"
           stroke="none"
           fill="#212121"
           fill-rule="nonzero"
           id="path38" />
        <path
           d="m 734.86,166.97 h -15.04 v 58.26 h 15.04 v -27.85001 c 0,-5.58999 1.74,-9.55 5.36,-12 3.60996,-2.44999 7.79996,-3.38001 12.34995,-2.8 v 0 -16.78 c -7.93,0 -14.91999,3.72999 -17.71005,11.19 v 0 -10.02 z"
           stroke="none"
           fill="#212121"
           fill-rule="nonzero"
           id="path40" />
        <path
           d="m 768.76,159.98 c 5.13,0 9.32,-4.2 9.32,-9.21001 0,-5.00999 -4.19,-9.32001 -9.32,-9.32001 -5.01,0 -9.2,4.31 -9.2,9.32001 0,5.00999 4.19,9.21001 9.2,9.21001 z m 7.58,65.25 v -58.26 h -15.03995 v 58.26 z"
           stroke="none"
           fill="#212121"
           fill-rule="nonzero"
           id="path42" />
        <path
           d="m 817.82,226.86 c 11.3,0 21.2,-5.94 26.33,-15.15 v 0 l -13.04996,-7.44999 c -2.33004,4.77 -7.34004,7.69 -13.40004,7.69 -4.53997,0 -8.27,-1.52 -11.19,-4.42999 -2.90996,-3.03 -4.42,-6.88001 -4.42,-11.42 0,-9.31999 6.64004,-15.96001 15.61,-15.96001 5.94,0 10.95,3.03 13.28004,7.80001 v 0 l 12.94,-7.57001 c -4.78004,-9.21001 -14.79998,-15.03 -26.09997,-15.03 -8.73997,0 -16.08002,2.91001 -22.03003,8.85001 -5.82001,5.94999 -8.72998,13.17 -8.72998,21.91 0,8.74001 2.90997,15.96001 8.72998,21.91001 5.95001,5.94 13.28996,8.85 22.03003,8.85 v 0 z"
           stroke="none"
           fill="#212121"
           fill-rule="nonzero"
           id="path44" />
        <path
           d="m 907.77,202.28 c 0.35,-2.22 0.59005,-4.2 0.59005,-6.18 0,-8.74 -2.79999,-15.96 -8.39002,-21.91 -5.47998,-5.94 -12.59003,-8.85 -21.09003,-8.85 -8.98,0 -16.43,2.91 -22.14,8.85 -5.71003,5.83 -8.62,13.17 -8.62,21.91 0,8.86 2.90997,16.2 8.73,22.02001 5.83,5.83 13.52,8.74001 23.19,8.74001 11.19,0 19.69,-4.19001 25.4,-12.47001 v 0 l -12.12,-6.99 c -2.90997,3.85001 -7.34,5.83 -13.05,5.83 -8.96995,0 -14.44,-3.61 -16.41996,-10.95 v 0 H 907.77 Z m -44.15995,-11.66 c 1.75,-7.45 7.22995,-11.76 15.27002,-11.76 6.86999,0 12.70003,3.84 14.44,11.76 v 0 z"
           stroke="none"
           fill="#212121"
           fill-rule="nonzero"
           id="path46" />
        <path
           d="m 930.38,183.52 c 0,-2.92 2.91,-4.78 6.76,-4.78 4.31,0 7.46004,1.98 9.32,5.94001 v 0 L 959.28,177.69 c -4.54996,-7.92 -12.7,-12.35 -22.14,-12.35 -6.28996,0 -11.53996,1.63 -15.84996,5.00999 -4.19,3.26 -6.28998,7.81 -6.28998,13.52001 0,12.11 10.84004,15.72999 19.46004,17.94 5.94,1.50999 10.59996,3.25999 10.59996,6.41 0,3.38 -2.67999,5.01 -8.03996,5.01 -5.94,0 -9.67,-2.57001 -11.42,-7.58 v 0 l -13.05,7.35 c 4.31,9.2 12.47,13.86 24.47,13.86 6.64,0 12.24,-1.63 16.65995,-4.78 4.54999,-3.26 6.76001,-7.92 6.76001,-13.86 0.12,-12.47 -10.95001,-16.55 -19.46002,-18.3 -5.94,-1.51 -10.59997,-3.26 -10.59997,-6.4 v 0 z"
           stroke="none"
           fill="#212121"
           fill-rule="nonzero"
           id="path48" />
      </g>
    </g>
  </g>
</svg>
