<svg xmlns="http://www.w3.org/2000/svg" width="900.91" height="584.18" viewBox="0 0 900.91 584.18"><g transform="translate(-41.55 -40.92)" opacity="0.5"><path d="M41.55,46.19c0,7.66,24.09,92.67,26.74,103.47,4.02,16.35,9.04,34.45,13.74,51.4,6.64,23.97,3.76,19.33-38.72,19.33,3.12,11.7,49.48,44,66.53,70.72l78.52,130.88c4.65,7.84,5.27,13.07,13.31,13.07,6.95,0,26.4-9.75,26.4-15.83,0-6.42-84.03-211.31-94-235.05-4.6-10.94-11.58-21.97-11.58-35.93,28.08-6.54,28.44,2.18,42.94,23.93l40.82,61.24c3.98,5.97,6.59,9.87,10.57,15.82,11.4,17.04,86.81,129.78,92.2,141.82,11.65,26.03,22.4,102.32,39.37,115.47l92.09,64.52c10.54,7.91,53.17,39.97,63.84,39.97l147.81-29.91c16.77,0,68.08,43.99,86.22,43.99,7.47,0,23.43-24.09,35.52-26.06,19.52-3.18,55.98,5.55,55.98-5.61,0-10.48-8.8-13.29-8.8-26.4,0-9.95,23.55-29.71,33.87-40.03,11.59-11.59,68.18-66.07,72.97-74.83,4.25-7.77,5.75-18.8,8.24-28.72,1.83-7.33,5.37-17.41,6.33-25.02v-6.32c-.56-2.81-2.13-4.56-5.28-4.56-104.15,0-81.15-10.14-113.69,39.4-10.83,16.5-4.37,24.31-21.77,48.61-30.2,42.21-129.52,54.58-169.22,23.12-74.99-59.42-50.48-204.5-55.27-220.98-2.24-7.7-67.94-95.34-77.94-108.58-4.48-5.94-7.72-11.66-12.88-17.04-11.29-11.78-29.35-2.39-57.1-6.24-13.23-1.84-13.38-2.73-20.27-11.4L367.53,82.69c-6.13-7-6.95-11.86-19.81-11.86H286.13c-16.37,0-14.07,16.68-14.07,29.91-69.71,0-51.32,7.87-116.69-45.19-5.66-4.6-15.98-14.63-24.08-14.63H46.83c-4.06,0-5.28,1.22-5.28,5.27Z" fill="#fff" fill-rule="evenodd"/></g></svg>