<svg xmlns="http://www.w3.org/2000/svg" width="171.723" height="20" viewBox="0 0 171.723 20"><g transform="translate(-132 -217.59)"><path d="M142.069,221.366a7.353,7.353,0,0,1-.92.034H123.568v4.087h17.888c.135,0,1.193,0,1.4-.032a5.835,5.835,0,0,0,5.316-6.031,5.74,5.74,0,0,0-5.043-5.963,13.319,13.319,0,0,0-1.431-.069H130.008a6.063,6.063,0,0,1-1.3-.1,1.712,1.712,0,0,1-1.259-1.738,1.746,1.746,0,0,1,1.294-1.7,4.954,4.954,0,0,1,1.227-.1h16.865v-4.022H129.7a11.537,11.537,0,0,0-1.7.1,5.845,5.845,0,0,0-.067,11.549c.612.069,1.463.069,1.839.069h11.38a5.762,5.762,0,0,1,.819.034,1.879,1.879,0,0,1,1.736,1.977,1.906,1.906,0,0,1-1.635,1.908Zm-33.322,0a7.059,7.059,0,0,1-.885.034H90.247v4.087h17.888c.135,0,1.193,0,1.4-.032a5.835,5.835,0,0,0,5.314-6.031,5.738,5.738,0,0,0-5.041-5.963,13.338,13.338,0,0,0-1.431-.069H96.686a6.051,6.051,0,0,1-1.3-.1,1.714,1.714,0,0,1-1.261-1.738,1.748,1.748,0,0,1,1.3-1.7,4.943,4.943,0,0,1,1.227-.1h16.865v-4.022H96.379a11.536,11.536,0,0,0-1.7.1,5.845,5.845,0,0,0-.069,11.549c.614.069,1.465.069,1.839.069h11.381a5.72,5.72,0,0,1,.817.034,1.963,1.963,0,0,1,.1,3.885Zm-32.1,4.224H81.08v-20H76.652v20Zm-9.779,0v-20h-4.43v14.923L47.69,205.59H42v20h4.429V210.6L61.284,225.59h5.589Zm142.454-20v14.923L194.574,205.59h-5.69v20h4.429V210.6l14.822,14.991h5.589v-20Zm-43.509,0-12.471,20h5.383l2.215-3.578h14.549l2.215,3.578h5.35l-12.471-20Zm7.394,12.641h-9.983l5.009-8.04Z" transform="translate(90 12)" fill="#212121" fill-rule="evenodd"/></g></svg>