<svg xmlns="http://www.w3.org/2000/svg" width="126" height="126" viewBox="0 0 126 126"><g transform="translate(0.347)"><g transform="translate(-0.347)"><rect width="126" height="126" fill="none"/></g><g transform="translate(9.954 5.259)"><g transform="translate(57.008 62.425)"><path d="M59.277,40.743,31.4,12.87H26.2L12.84,26.228v5.206L40.713,59.307a5.237,5.237,0,0,0,7.415,0L59.277,48.158A5.237,5.237,0,0,0,59.277,40.743ZM44.394,48.211l-22.3-22.3,3.734-3.734,22.3,22.3Z" transform="translate(-12.84 -12.87)" fill="#212121"/></g><path d="M82.674,49.331l7.415-7.415,11.149,11.149a15.775,15.775,0,0,0,0-22.3L82.621,12.149l-7.415,7.415V4.734L71.525,1,52.908,19.617l3.734,3.734H71.525l-7.415,7.415,5.575,5.575-15.2,15.2L32.765,29.82V22.352L16.883,6.469,2,21.353,17.935,37.287H25.35l21.72,21.72-4.47,4.47H31.451L3.578,91.351a5.237,5.237,0,0,0,0,7.415l11.149,11.149a5.237,5.237,0,0,0,7.415,0L50.015,82.042V70.893L77.1,43.809ZM40.707,76.415l-22.3,22.3-3.734-3.734,22.3-22.3h0l3.734,3.734Z" transform="translate(-2 -1)" fill="#212121"/></g></g></svg>