<svg xmlns="http://www.w3.org/2000/svg" width="236.26" height="303.453" viewBox="0 0 236.26 303.453"><path d="M146.036,303.442a30.248,30.248,0,0,1-9.545-1.534C70.529,280,27.9,227.54,27.9,168.264V63.578A22,22,0,0,1,45.956,41.9h0C79.42,35.809,108.571,23.26,132.6,4.6a21.88,21.88,0,0,1,26.865,0C183.5,23.26,212.65,35.809,246.113,41.9a22,22,0,0,1,18.052,21.68V168.264c0,59.277-42.624,111.736-108.587,133.645A30.212,30.212,0,0,1,146.036,303.442Zm0-283.21a1.659,1.659,0,0,0-1.025.347C118.386,41.258,86.277,55.128,49.581,61.8h0a1.785,1.785,0,0,0-1.443,1.773V168.264c0,50.409,37.186,95.33,94.736,114.447a10.114,10.114,0,0,0,6.332,0c57.55-19.114,94.733-64.037,94.733-114.447V63.578A1.783,1.783,0,0,0,242.5,61.8c-36.7-6.676-68.808-20.547-95.437-41.225A1.67,1.67,0,0,0,146.036,20.232ZM47.77,51.851h0Z" transform="translate(-27.904 0.011)" fill="#212121"/><path d="M161.04,114.43l-6.136-6.136a5.393,5.393,0,0,0-7.623,0L126.235,129.34l-10.85-10.85a5.393,5.393,0,0,0-7.623,0l-6.136,6.136a5.393,5.393,0,0,0,0,7.623l20.8,20.8a5.393,5.393,0,0,0,7.623,0l31-31A5.389,5.389,0,0,0,161.04,114.43Z" transform="translate(-13.201 21.763)" fill="#212121"/><path d="M138.919,212.335a76.091,76.091,0,1,1,76.091-76.091A76.177,76.177,0,0,1,138.919,212.335Zm0-131.952a55.861,55.861,0,1,0,55.861,55.861A55.925,55.925,0,0,0,138.919,80.383Z" transform="translate(-20.787 12.273)" fill="#212121"/></svg>